<svg width="40" height="40" viewBox="0 0 40 40" fill="none" xmlns="http://www.w3.org/2000/svg">
<rect width="40" height="40" rx="3" fill="#1976BC"/>
<mask id="mask0_563_5571" style="mask-type:alpha" maskUnits="userSpaceOnUse" x="0" y="0" width="40" height="40">
<rect width="40" height="40" rx="3" fill="white"/>
</mask>
<g mask="url(#mask0_563_5571)">
<path fill-rule="evenodd" clip-rule="evenodd" d="M14.2964 19.9886C19.0492 22.2671 23.5961 25.068 28.6465 26.5768C30.1965 27.0397 31.7981 27.3788 33.4159 27.3729C35.7 27.3649 37.8736 26.6829 40 25.8051V23.8797C39.9975 23.8799 39.995 23.8801 39.9922 23.8801C37.9351 23.9924 35.8751 23.6107 33.9077 22.999C28.7425 21.3929 24.2184 18.2588 19.5135 15.5898C14.8087 12.9209 9.59066 10.6359 4.19418 11.0059C2.75121 11.1049 1.35647 11.3864 0 11.8038V16.5297C4.91547 16.1252 9.82272 17.844 14.2964 19.9886Z" fill="#2C8BD2"/>
<path fill-rule="evenodd" clip-rule="evenodd" d="M19.5135 15.5898C24.2184 18.2588 28.7425 21.3929 33.9077 22.999C35.8751 23.6107 37.9351 23.9924 39.9922 23.8801C39.995 23.8801 39.9975 23.8799 40 23.8797V0H0V11.8038C1.35647 11.3864 2.75121 11.1049 4.19418 11.0059C9.59066 10.6359 14.8087 12.9209 19.5135 15.5898Z" fill="#1976BC"/>
<path fill-rule="evenodd" clip-rule="evenodd" d="M33.4159 27.3729C31.7981 27.3788 30.1965 27.0397 28.6465 26.5768C23.5961 25.068 19.0492 22.2671 14.2964 19.9886C9.82272 17.844 4.91547 16.1252 0 16.5297V24.2062C1.74307 23.6764 3.51233 23.2942 5.31815 23.1371C11.4689 22.6021 17.563 24.7575 23.0098 27.6642C27.9205 30.2847 32.83 33.637 38.3961 33.6421C38.937 33.6425 39.4714 33.6112 40 33.5524V25.8051C37.8736 26.6829 35.7 27.3649 33.4159 27.3729Z" fill="#1976BC"/>
<path fill-rule="evenodd" clip-rule="evenodd" d="M29.9539 36.1672C20.235 35.7707 11.5512 29.1898 1.82768 28.9317C1.21702 28.9155 0.607847 28.9247 0 28.9556V40H40V34.7619C36.696 35.6788 33.3619 36.3062 29.9539 36.1672Z" fill="#000B26"/>
<path fill-rule="evenodd" clip-rule="evenodd" d="M38.3961 33.6421C32.83 33.637 27.9205 30.2847 23.0098 27.6642C17.563 24.7574 11.4689 22.6021 5.31815 23.1371C3.51233 23.2942 1.74307 23.6764 0 24.2062V28.9556C0.607847 28.9248 1.21702 28.9155 1.82768 28.9317C11.5512 29.1898 20.235 35.7708 29.9539 36.1672C33.3619 36.3062 36.696 35.6788 40 34.7619V33.5524C39.4714 33.6112 38.937 33.6425 38.3961 33.6421Z" fill="#13609A"/>
</g>
<circle cx="20" cy="20" r="11.3333" fill="#93E9FF"/>
<circle cx="20" cy="20" r="11.3333" fill="#54C0DB"/>
<mask id="mask1_563_5571" style="mask-type:alpha" maskUnits="userSpaceOnUse" x="13" y="13" width="14" height="14">
<path fill-rule="evenodd" clip-rule="evenodd" d="M17.957 20.3059H19.5256C19.0645 21.5299 18.5878 22.7187 17.9544 23.6797L17.957 20.3059ZM15.5878 20.3059H17.3469V24.4727C16.9554 24.9153 16.4837 25.279 15.957 25.5443C15.8378 25.6029 15.7148 25.6563 15.5865 25.7058V20.3059H15.5878ZM20.4064 19.6965C20.8947 18.4022 21.3986 17.1496 22.0903 16.1574V19.6978H20.4064V19.6965ZM24.4543 19.6965H22.6952V15.3995C23.0677 15.0075 23.5062 14.6848 23.9905 14.4464C24.1441 14.3707 24.302 14.3042 24.4633 14.2472V19.7017L24.4543 19.6965ZM23.7198 13.8969C23.0213 14.2486 22.4077 14.7494 21.9219 15.3644C20.9452 16.5701 20.3455 18.1405 19.7561 19.6978H13.6604C13.5514 19.6906 13.4469 19.7424 13.3862 19.8337C13.3255 19.9249 13.3178 20.0418 13.3661 20.1403C13.4144 20.2388 13.5113 20.3039 13.6202 20.3111H14.9777V25.9102C14.545 26.0081 14.1026 26.0557 13.6591 26.0522C13.4906 26.041 13.3451 26.1693 13.334 26.3386C13.3229 26.508 13.4505 26.6543 13.619 26.6655H13.6591C14.5464 26.6836 15.4258 26.4942 16.2277 26.1121C16.923 25.7576 17.5326 25.2545 18.014 24.6381C18.9906 23.431 19.5916 21.8685 20.1758 20.3059H26.3622C26.5304 20.3059 26.6666 20.1689 26.6666 19.9999C26.6666 19.8309 26.5304 19.6939 26.3622 19.6939H25.0669V14.0675C25.4693 13.9849 25.8791 13.9443 26.2897 13.9464C26.4578 13.9464 26.5941 13.8094 26.5941 13.6404C26.5941 13.4714 26.4578 13.3344 26.2897 13.3344H26.2845C25.399 13.3173 24.5216 13.5067 23.7211 13.8878L23.7198 13.8969Z" fill="white"/>
</mask>
<g mask="url(#mask1_563_5571)">
<rect width="13.3333" height="13.4615" transform="translate(13.3333 13.3333)" fill="white"/>
<rect x="13.3333" y="13.3333" width="13.3333" height="13.4615" fill="white"/>
<mask id="mask2_563_5571" style="mask-type:alpha" maskUnits="userSpaceOnUse" x="13" y="13" width="14" height="14">
<rect x="13.3333" y="13.3333" width="13.3333" height="13.4615" fill="white"/>
</mask>
<g mask="url(#mask2_563_5571)">
</g>
</g>
</svg>
