<svg fill="none" xmlns="http://www.w3.org/2000/svg" viewBox="0 0 1440 130"><path d="M437.373 114.693c-98.364-3.543-201.048-5.233-301.752-3.153-46.077.926-91.524 2.698-135.621 5.428V130h759.372c-104.303-5.395-207.707-11.066-312.82-14.982-3.06-.114-6.12-.212-9.179-.325Z" fill="#011034"/><path d="M1439.91 0H0v116.967c44.097-2.73 89.544-4.517 135.622-5.443 100.703-2.064 203.387-.39 301.751 3.152 3.059.114 6.119.228 9.179.325 105.114 3.9 208.517 9.588 312.82 14.983h680.538V0Z" fill="#031542"/><path d="M430.533 94.412c2.88.13 5.76.277 8.55.407 176.568 8.531 349.808 21.694 534.116 28.697 156.771 5.948 314.531 4.745 466.711-1.657V0H0v93.421c47.067-2.86 95.844-4.501 144.981-5.021 96.564-1.073 193.128 1.657 285.552 6.012Z" fill="#061A4E"/><path d="M0 0v69.778c50.037-2.99 102.144-4.437 154.25-4.502 92.515-.13 182.869 3.689 269.353 8.856 2.7.163 5.31.325 8.01.488 165.23 10.075 329.109 23.741 506.128 31.216 168.019 7.101 338.649 5.59 502.079-2.047V0H0Z" fill="#09205B"/><path d="M163.61 42.153c88.374.974 172.699 5.72 253.154 11.716 2.52.178 4.95.373 7.469.552 153.891 11.635 308.411 25.756 478.141 33.752 178.906 8.417 363.036 6.63 537.536-2.406V0H0v46.02c53.097-3.185 108.533-4.469 163.61-3.867Z" fill="#0D2666"/><path d="M1439.91 0H0v22.149c56.066-3.396 114.923-4.469 172.969-3.12 84.235 1.966 162.44 7.751 236.955 14.56 2.34.211 4.59.422 6.93.633 142.551 13.18 287.712 27.772 450.242 36.27 189.434 9.913 387.694 7.963 572.904-2.697V0h-.09Z" fill="#0F2C75"/><path d="M409.384 14.024C540.596 28.763 676.397 43.76 831.638 52.812c187.732 10.953 388.142 9.88 574.072-.86 11.52-.667 22.86-1.366 34.29-2.097V0H259.273c50.397 3.461 97.824 8.223 143.721 13.325 2.16.228 4.23.471 6.39.699Z" fill="#113285"/><path d="M1439.91 0H448.172C554.455 13.943 667.308 26.731 796.27 35.133c172.609 11.244 359.98 12.138 535.47 3.428 36.71-1.82 72.98-4.095 108.26-6.776V0h-.09Z" fill="#133794"/><path d="M1257.67 25.155c42.48-1.723 84.24-4.111 124.73-7.117 19.53-1.447 38.7-3.056 57.51-4.794V0H579.023c56.607 6.776 116.723 12.707 181.879 17.453 157.4 11.488 331.808 14.413 496.768 7.702Z" fill="#153DA4"/><path d="M1183.7 11.765c67.76-2.048 134-6.029 195.1-11.765H728.145C870.066 11.537 1030.17 16.413 1183.7 11.765Z" fill="#1743B3"/></svg>
